<svg width="50" height="34" viewBox="0 0 50 34" fill="none" xmlns="http://www.w3.org/2000/svg">
<path d="M38.8889 12.75L50 1.41667V32.5833L38.8889 21.25V31.1667C38.8889 31.9181 38.5962 32.6388 38.0753 33.1701C37.5544 33.7015 36.8478 34 36.1111 34H2.77778C2.04107 34 1.33453 33.7015 0.813592 33.1701C0.292658 32.6388 0 31.9181 0 31.1667V2.83333C0 2.08189 0.292658 1.36122 0.813592 0.829865C1.33453 0.298512 2.04107 0 2.77778 0H36.1111C36.8478 0 37.5544 0.298512 38.0753 0.829865C38.5962 1.36122 38.8889 2.08189 38.8889 2.83333V12.75ZM30.5556 28.3333V25.5C30.5556 21.7317 23.1389 19.8333 19.4444 19.8333C15.75 19.8333 8.33333 21.7317 8.33333 25.5V28.3333H30.5556ZM19.4444 5.66667C17.971 5.66667 16.5579 6.26369 15.5161 7.3264C14.4742 8.3891 13.8889 9.83044 13.8889 11.3333C13.8889 12.8362 14.4742 14.2776 15.5161 15.3403C16.5579 16.403 17.971 17 19.4444 17C20.9179 17 22.3309 16.403 23.3728 15.3403C24.4147 14.2776 25 12.8362 25 11.3333C25 9.83044 24.4147 8.3891 23.3728 7.3264C22.3309 6.26369 20.9179 5.66667 19.4444 5.66667Z" fill="url(#paint0_linear_24_8)"/>
<path d="M38.8889 12.75L50 1.41667V32.5833L38.8889 21.25V31.1667C38.8889 31.9181 38.5962 32.6388 38.0753 33.1701C37.5544 33.7015 36.8478 34 36.1111 34H2.77778C2.04107 34 1.33453 33.7015 0.813592 33.1701C0.292658 32.6388 0 31.9181 0 31.1667V2.83333C0 2.08189 0.292658 1.36122 0.813592 0.829865C1.33453 0.298512 2.04107 0 2.77778 0H36.1111C36.8478 0 37.5544 0.298512 38.0753 0.829865C38.5962 1.36122 38.8889 2.08189 38.8889 2.83333V12.75ZM30.5556 28.3333V25.5C30.5556 21.7317 23.1389 19.8333 19.4444 19.8333C15.75 19.8333 8.33333 21.7317 8.33333 25.5V28.3333H30.5556ZM19.4444 5.66667C17.971 5.66667 16.5579 6.26369 15.5161 7.3264C14.4742 8.3891 13.8889 9.83044 13.8889 11.3333C13.8889 12.8362 14.4742 14.2776 15.5161 15.3403C16.5579 16.403 17.971 17 19.4444 17C20.9179 17 22.3309 16.403 23.3728 15.3403C24.4147 14.2776 25 12.8362 25 11.3333C25 9.83044 24.4147 8.3891 23.3728 7.3264C22.3309 6.26369 20.9179 5.66667 19.4444 5.66667Z" stroke="black"/>
<defs>
<linearGradient id="paint0_linear_24_8" x1="0" y1="17" x2="50" y2="17" gradientUnits="userSpaceOnUse">
<stop stop-color="#38AAEB"/>
<stop offset="1" stop-color="#206085"/>
</linearGradient>
</defs>
</svg>
